<mxfile host="app.diagrams.net" modified="2024-03-27T09:32:38.134Z" agent="Mozilla/5.0 (Windows NT 10.0; Win64; x64) AppleWebKit/537.36 (KHTML, like Gecko) Chrome/122.0.0.0 Safari/537.36 Edg/122.0.0.0" etag="QeAzQGrxsZgdX_eglSp9" version="24.2.0" type="github">
  <diagram name="Page-1" id="2YBvvXClWsGukQMizWep">
    <mxGraphModel dx="1386" dy="759" grid="1" gridSize="10" guides="1" tooltips="1" connect="1" arrows="1" fold="1" page="1" pageScale="1" pageWidth="850" pageHeight="1100" math="0" shadow="0">
      <root>
        <mxCell id="0" />
        <mxCell id="1" parent="0" />
        <mxCell id="aM9ryv3xv72pqoxQDRHE-1" value=":Object" style="shape=umlLifeline;perimeter=lifelinePerimeter;whiteSpace=wrap;html=1;container=0;dropTarget=0;collapsible=0;recursiveResize=0;outlineConnect=0;portConstraint=eastwest;newEdgeStyle={&quot;edgeStyle&quot;:&quot;elbowEdgeStyle&quot;,&quot;elbow&quot;:&quot;vertical&quot;,&quot;curved&quot;:0,&quot;rounded&quot;:0};" parent="1" vertex="1">
          <mxGeometry x="40" y="40" width="100" height="300" as="geometry" />
        </mxCell>
        <mxCell id="aM9ryv3xv72pqoxQDRHE-2" value="" style="html=1;points=[];perimeter=orthogonalPerimeter;outlineConnect=0;targetShapes=umlLifeline;portConstraint=eastwest;newEdgeStyle={&quot;edgeStyle&quot;:&quot;elbowEdgeStyle&quot;,&quot;elbow&quot;:&quot;vertical&quot;,&quot;curved&quot;:0,&quot;rounded&quot;:0};" parent="aM9ryv3xv72pqoxQDRHE-1" vertex="1">
          <mxGeometry x="45" y="70" width="10" height="190" as="geometry" />
        </mxCell>
        <mxCell id="aM9ryv3xv72pqoxQDRHE-3" value="dispatch" style="html=1;verticalAlign=bottom;startArrow=oval;endArrow=block;startSize=8;edgeStyle=elbowEdgeStyle;elbow=vertical;curved=0;rounded=0;" parent="aM9ryv3xv72pqoxQDRHE-1" target="aM9ryv3xv72pqoxQDRHE-2" edge="1">
          <mxGeometry relative="1" as="geometry">
            <mxPoint x="-15" y="70" as="sourcePoint" />
          </mxGeometry>
        </mxCell>
        <mxCell id="aM9ryv3xv72pqoxQDRHE-4" value="" style="html=1;points=[];perimeter=orthogonalPerimeter;outlineConnect=0;targetShapes=umlLifeline;portConstraint=eastwest;newEdgeStyle={&quot;edgeStyle&quot;:&quot;elbowEdgeStyle&quot;,&quot;elbow&quot;:&quot;vertical&quot;,&quot;curved&quot;:0,&quot;rounded&quot;:0};" parent="aM9ryv3xv72pqoxQDRHE-1" vertex="1">
          <mxGeometry x="50" y="120" width="10" height="80" as="geometry" />
        </mxCell>
        <mxCell id="aM9ryv3xv72pqoxQDRHE-5" value=":Object" style="shape=umlLifeline;perimeter=lifelinePerimeter;whiteSpace=wrap;html=1;container=0;dropTarget=0;collapsible=0;recursiveResize=0;outlineConnect=0;portConstraint=eastwest;newEdgeStyle={&quot;edgeStyle&quot;:&quot;elbowEdgeStyle&quot;,&quot;elbow&quot;:&quot;vertical&quot;,&quot;curved&quot;:0,&quot;rounded&quot;:0};" parent="1" vertex="1">
          <mxGeometry x="220" y="40" width="100" height="300" as="geometry" />
        </mxCell>
        <mxCell id="aM9ryv3xv72pqoxQDRHE-6" value="" style="html=1;points=[];perimeter=orthogonalPerimeter;outlineConnect=0;targetShapes=umlLifeline;portConstraint=eastwest;newEdgeStyle={&quot;edgeStyle&quot;:&quot;elbowEdgeStyle&quot;,&quot;elbow&quot;:&quot;vertical&quot;,&quot;curved&quot;:0,&quot;rounded&quot;:0};" parent="aM9ryv3xv72pqoxQDRHE-5" vertex="1">
          <mxGeometry x="45" y="80" width="10" height="170" as="geometry" />
        </mxCell>
        <mxCell id="aM9ryv3xv72pqoxQDRHE-7" value="dispatch" style="html=1;verticalAlign=bottom;endArrow=block;edgeStyle=elbowEdgeStyle;elbow=vertical;curved=0;rounded=0;" parent="1" source="aM9ryv3xv72pqoxQDRHE-2" target="aM9ryv3xv72pqoxQDRHE-6" edge="1">
          <mxGeometry relative="1" as="geometry">
            <mxPoint x="195" y="130" as="sourcePoint" />
            <Array as="points">
              <mxPoint x="180" y="120" />
            </Array>
          </mxGeometry>
        </mxCell>
        <mxCell id="aM9ryv3xv72pqoxQDRHE-8" value="return" style="html=1;verticalAlign=bottom;endArrow=open;dashed=1;endSize=8;edgeStyle=elbowEdgeStyle;elbow=vertical;curved=0;rounded=0;" parent="1" source="aM9ryv3xv72pqoxQDRHE-6" target="aM9ryv3xv72pqoxQDRHE-2" edge="1">
          <mxGeometry relative="1" as="geometry">
            <mxPoint x="195" y="205" as="targetPoint" />
            <Array as="points">
              <mxPoint x="190" y="280" />
            </Array>
          </mxGeometry>
        </mxCell>
        <mxCell id="aM9ryv3xv72pqoxQDRHE-9" value="callback" style="html=1;verticalAlign=bottom;endArrow=block;edgeStyle=elbowEdgeStyle;elbow=vertical;curved=0;rounded=0;" parent="1" source="aM9ryv3xv72pqoxQDRHE-6" target="aM9ryv3xv72pqoxQDRHE-4" edge="1">
          <mxGeometry relative="1" as="geometry">
            <mxPoint x="175" y="160" as="sourcePoint" />
            <Array as="points">
              <mxPoint x="190" y="160" />
            </Array>
          </mxGeometry>
        </mxCell>
        <mxCell id="aM9ryv3xv72pqoxQDRHE-10" value="return" style="html=1;verticalAlign=bottom;endArrow=open;dashed=1;endSize=8;edgeStyle=elbowEdgeStyle;elbow=vertical;curved=0;rounded=0;" parent="1" source="aM9ryv3xv72pqoxQDRHE-4" target="aM9ryv3xv72pqoxQDRHE-6" edge="1">
          <mxGeometry relative="1" as="geometry">
            <mxPoint x="175" y="235" as="targetPoint" />
            <Array as="points">
              <mxPoint x="180" y="230" />
            </Array>
          </mxGeometry>
        </mxCell>
        <mxCell id="1cbDfAs7EbQOvND0lRby-1" value="Frontend Developer" style="shape=umlLifeline;perimeter=lifelinePerimeter;whiteSpace=wrap;container=1;dropTarget=0;collapsible=0;recursiveResize=0;outlineConnect=0;portConstraint=eastwest;newEdgeStyle={&quot;edgeStyle&quot;:&quot;elbowEdgeStyle&quot;,&quot;elbow&quot;:&quot;vertical&quot;,&quot;curved&quot;:0,&quot;rounded&quot;:0};size=65;" vertex="1" parent="1">
          <mxGeometry x="36" y="360" width="161" height="1232" as="geometry" />
        </mxCell>
        <mxCell id="1cbDfAs7EbQOvND0lRby-2" value="Backend Developer" style="shape=umlLifeline;perimeter=lifelinePerimeter;whiteSpace=wrap;container=1;dropTarget=0;collapsible=0;recursiveResize=0;outlineConnect=0;portConstraint=eastwest;newEdgeStyle={&quot;edgeStyle&quot;:&quot;elbowEdgeStyle&quot;,&quot;elbow&quot;:&quot;vertical&quot;,&quot;curved&quot;:0,&quot;rounded&quot;:0};size=65;" vertex="1" parent="1">
          <mxGeometry x="292" y="360" width="157" height="1232" as="geometry" />
        </mxCell>
        <mxCell id="1cbDfAs7EbQOvND0lRby-3" value="VPN Configuration" style="shape=umlLifeline;perimeter=lifelinePerimeter;whiteSpace=wrap;container=1;dropTarget=0;collapsible=0;recursiveResize=0;outlineConnect=0;portConstraint=eastwest;newEdgeStyle={&quot;edgeStyle&quot;:&quot;elbowEdgeStyle&quot;,&quot;elbow&quot;:&quot;vertical&quot;,&quot;curved&quot;:0,&quot;rounded&quot;:0};size=65;" vertex="1" parent="1">
          <mxGeometry x="499" y="360" width="153" height="1232" as="geometry" />
        </mxCell>
        <mxCell id="1cbDfAs7EbQOvND0lRby-4" value="Automation Script" style="shape=umlLifeline;perimeter=lifelinePerimeter;whiteSpace=wrap;container=1;dropTarget=0;collapsible=0;recursiveResize=0;outlineConnect=0;portConstraint=eastwest;newEdgeStyle={&quot;edgeStyle&quot;:&quot;elbowEdgeStyle&quot;,&quot;elbow&quot;:&quot;vertical&quot;,&quot;curved&quot;:0,&quot;rounded&quot;:0};size=65;" vertex="1" parent="1">
          <mxGeometry x="702" y="360" width="150" height="1232" as="geometry" />
        </mxCell>
        <mxCell id="1cbDfAs7EbQOvND0lRby-5" value="Backend API" style="shape=umlLifeline;perimeter=lifelinePerimeter;whiteSpace=wrap;container=1;dropTarget=0;collapsible=0;recursiveResize=0;outlineConnect=0;portConstraint=eastwest;newEdgeStyle={&quot;edgeStyle&quot;:&quot;elbowEdgeStyle&quot;,&quot;elbow&quot;:&quot;vertical&quot;,&quot;curved&quot;:0,&quot;rounded&quot;:0};size=65;" vertex="1" parent="1">
          <mxGeometry x="902" y="360" width="150" height="1232" as="geometry" />
        </mxCell>
        <mxCell id="1cbDfAs7EbQOvND0lRby-6" value="Database" style="shape=umlLifeline;perimeter=lifelinePerimeter;whiteSpace=wrap;container=1;dropTarget=0;collapsible=0;recursiveResize=0;outlineConnect=0;portConstraint=eastwest;newEdgeStyle={&quot;edgeStyle&quot;:&quot;elbowEdgeStyle&quot;,&quot;elbow&quot;:&quot;vertical&quot;,&quot;curved&quot;:0,&quot;rounded&quot;:0};size=65;" vertex="1" parent="1">
          <mxGeometry x="1151" y="360" width="150" height="1232" as="geometry" />
        </mxCell>
        <mxCell id="1cbDfAs7EbQOvND0lRby-7" value="alt" style="shape=umlFrame;dashed=1;pointerEvents=0;dropTarget=0;strokeColor=#B3B3B3;height=20;width=30" vertex="1" parent="1">
          <mxGeometry x="30" y="1001" width="1206" height="278" as="geometry" />
        </mxCell>
        <mxCell id="1cbDfAs7EbQOvND0lRby-8" value="[Link is working]" style="text;strokeColor=none;fillColor=none;align=center;verticalAlign=middle;whiteSpace=wrap;" vertex="1" parent="1cbDfAs7EbQOvND0lRby-7">
          <mxGeometry x="30" width="1176" height="20" as="geometry" />
        </mxCell>
        <mxCell id="1cbDfAs7EbQOvND0lRby-9" value="[Link is not working]" style="shape=line;dashed=1;whiteSpace=wrap;verticalAlign=top;labelPosition=center;verticalLabelPosition=middle;align=center;strokeColor=#B3B3B3;" vertex="1" parent="1cbDfAs7EbQOvND0lRby-7">
          <mxGeometry y="133" width="1206" height="4" as="geometry" />
        </mxCell>
        <mxCell id="1cbDfAs7EbQOvND0lRby-10" value="loop" style="shape=umlFrame;dashed=1;pointerEvents=0;dropTarget=0;strokeColor=#B3B3B3;height=20;width=40" vertex="1" parent="1">
          <mxGeometry x="20" y="695" width="1226" height="594" as="geometry" />
        </mxCell>
        <mxCell id="1cbDfAs7EbQOvND0lRby-11" value="[Test Playback Links]" style="text;strokeColor=none;fillColor=none;align=center;verticalAlign=middle;whiteSpace=wrap;" vertex="1" parent="1cbDfAs7EbQOvND0lRby-10">
          <mxGeometry x="40" width="1186" height="20" as="geometry" />
        </mxCell>
        <mxCell id="1cbDfAs7EbQOvND0lRby-12" value="Configure VPN for different regions" style="verticalAlign=bottom;endArrow=block;edgeStyle=elbowEdgeStyle;elbow=vertical;curved=0;rounded=0;" edge="1" parent="1" source="1cbDfAs7EbQOvND0lRby-1" target="1cbDfAs7EbQOvND0lRby-3">
          <mxGeometry relative="1" as="geometry">
            <Array as="points">
              <mxPoint x="356" y="467" />
            </Array>
          </mxGeometry>
        </mxCell>
        <mxCell id="1cbDfAs7EbQOvND0lRby-13" value="Prepare data for testing" style="verticalAlign=bottom;endArrow=block;edgeStyle=elbowEdgeStyle;elbow=vertical;curved=0;rounded=0;" edge="1" parent="1" source="1cbDfAs7EbQOvND0lRby-2" target="1cbDfAs7EbQOvND0lRby-6">
          <mxGeometry relative="1" as="geometry">
            <Array as="points">
              <mxPoint x="808" y="519" />
            </Array>
          </mxGeometry>
        </mxCell>
        <mxCell id="1cbDfAs7EbQOvND0lRby-14" value="Develop endpoints (data retrieval &amp; issue reporting)" style="verticalAlign=bottom;endArrow=block;edgeStyle=elbowEdgeStyle;elbow=vertical;curved=0;rounded=0;" edge="1" parent="1" source="1cbDfAs7EbQOvND0lRby-2" target="1cbDfAs7EbQOvND0lRby-5">
          <mxGeometry relative="1" as="geometry">
            <Array as="points">
              <mxPoint x="684" y="571" />
            </Array>
          </mxGeometry>
        </mxCell>
        <mxCell id="1cbDfAs7EbQOvND0lRby-15" value="Provide data to API" style="verticalAlign=bottom;endArrow=block;edgeStyle=elbowEdgeStyle;elbow=vertical;curved=0;rounded=0;dashed=1;dashPattern=2 3;" edge="1" parent="1" source="1cbDfAs7EbQOvND0lRby-6" target="1cbDfAs7EbQOvND0lRby-5">
          <mxGeometry relative="1" as="geometry">
            <Array as="points">
              <mxPoint x="1112" y="623" />
            </Array>
          </mxGeometry>
        </mxCell>
        <mxCell id="1cbDfAs7EbQOvND0lRby-16" value="Write automation script" style="verticalAlign=bottom;endArrow=block;edgeStyle=elbowEdgeStyle;elbow=vertical;curved=0;rounded=0;" edge="1" parent="1" source="1cbDfAs7EbQOvND0lRby-1" target="1cbDfAs7EbQOvND0lRby-4">
          <mxGeometry relative="1" as="geometry">
            <Array as="points">
              <mxPoint x="457" y="675" />
            </Array>
          </mxGeometry>
        </mxCell>
        <mxCell id="1cbDfAs7EbQOvND0lRby-17" value="Request playback link data" style="verticalAlign=bottom;endArrow=block;edgeStyle=elbowEdgeStyle;elbow=vertical;curved=0;rounded=0;" edge="1" parent="1" source="1cbDfAs7EbQOvND0lRby-1" target="1cbDfAs7EbQOvND0lRby-5">
          <mxGeometry relative="1" as="geometry">
            <Array as="points">
              <mxPoint x="557" y="773" />
            </Array>
          </mxGeometry>
        </mxCell>
        <mxCell id="1cbDfAs7EbQOvND0lRby-18" value="Query link data by region" style="verticalAlign=bottom;endArrow=block;edgeStyle=elbowEdgeStyle;elbow=vertical;curved=0;rounded=0;" edge="1" parent="1" source="1cbDfAs7EbQOvND0lRby-5" target="1cbDfAs7EbQOvND0lRby-6">
          <mxGeometry relative="1" as="geometry">
            <Array as="points">
              <mxPoint x="1112" y="825" />
            </Array>
          </mxGeometry>
        </mxCell>
        <mxCell id="1cbDfAs7EbQOvND0lRby-19" value="Return link data" style="verticalAlign=bottom;endArrow=block;edgeStyle=elbowEdgeStyle;elbow=vertical;curved=0;rounded=0;dashed=1;dashPattern=2 3;" edge="1" parent="1" source="1cbDfAs7EbQOvND0lRby-6" target="1cbDfAs7EbQOvND0lRby-5">
          <mxGeometry relative="1" as="geometry">
            <Array as="points">
              <mxPoint x="1112" y="877" />
            </Array>
          </mxGeometry>
        </mxCell>
        <mxCell id="1cbDfAs7EbQOvND0lRby-20" value="Provide playback link" style="verticalAlign=bottom;endArrow=block;edgeStyle=elbowEdgeStyle;elbow=vertical;curved=0;rounded=0;dashed=1;dashPattern=2 3;" edge="1" parent="1" source="1cbDfAs7EbQOvND0lRby-5" target="1cbDfAs7EbQOvND0lRby-1">
          <mxGeometry relative="1" as="geometry">
            <Array as="points">
              <mxPoint x="557" y="929" />
            </Array>
          </mxGeometry>
        </mxCell>
        <mxCell id="1cbDfAs7EbQOvND0lRby-21" value="Execute script to test link" style="verticalAlign=bottom;endArrow=block;edgeStyle=elbowEdgeStyle;elbow=vertical;curved=0;rounded=0;" edge="1" parent="1" source="1cbDfAs7EbQOvND0lRby-1" target="1cbDfAs7EbQOvND0lRby-4">
          <mxGeometry relative="1" as="geometry">
            <Array as="points">
              <mxPoint x="457" y="981" />
            </Array>
          </mxGeometry>
        </mxCell>
        <mxCell id="1cbDfAs7EbQOvND0lRby-22" value="Move to next content" style="curved=1;rounded=0;" edge="1" parent="1" source="1cbDfAs7EbQOvND0lRby-1" target="1cbDfAs7EbQOvND0lRby-1">
          <mxGeometry relative="1" as="geometry">
            <Array as="points">
              <mxPoint x="167" y="1079" />
              <mxPoint x="167" y="1109" />
            </Array>
          </mxGeometry>
        </mxCell>
        <mxCell id="1cbDfAs7EbQOvND0lRby-23" value="Report issue with link" style="verticalAlign=bottom;endArrow=block;edgeStyle=elbowEdgeStyle;elbow=vertical;curved=0;rounded=0;" edge="1" parent="1" source="1cbDfAs7EbQOvND0lRby-1" target="1cbDfAs7EbQOvND0lRby-5">
          <mxGeometry relative="1" as="geometry">
            <Array as="points">
              <mxPoint x="557" y="1207" />
            </Array>
          </mxGeometry>
        </mxCell>
        <mxCell id="1cbDfAs7EbQOvND0lRby-24" value="Log issue" style="verticalAlign=bottom;endArrow=block;edgeStyle=elbowEdgeStyle;elbow=vertical;curved=0;rounded=0;" edge="1" parent="1" source="1cbDfAs7EbQOvND0lRby-5" target="1cbDfAs7EbQOvND0lRby-6">
          <mxGeometry relative="1" as="geometry">
            <Array as="points">
              <mxPoint x="1112" y="1259" />
            </Array>
          </mxGeometry>
        </mxCell>
        <mxCell id="1cbDfAs7EbQOvND0lRby-25" value="Report end of content list" style="verticalAlign=bottom;endArrow=block;edgeStyle=elbowEdgeStyle;elbow=vertical;curved=0;rounded=0;" edge="1" parent="1" source="1cbDfAs7EbQOvND0lRby-1" target="1cbDfAs7EbQOvND0lRby-2">
          <mxGeometry relative="1" as="geometry">
            <Array as="points">
              <mxPoint x="254" y="1331" />
            </Array>
          </mxGeometry>
        </mxCell>
        <mxCell id="1cbDfAs7EbQOvND0lRby-26" value="Review and resolve issues" style="verticalAlign=bottom;endArrow=block;edgeStyle=elbowEdgeStyle;elbow=vertical;curved=0;rounded=0;" edge="1" parent="1" source="1cbDfAs7EbQOvND0lRby-2" target="1cbDfAs7EbQOvND0lRby-6">
          <mxGeometry relative="1" as="geometry">
            <Array as="points">
              <mxPoint x="808" y="1383" />
            </Array>
          </mxGeometry>
        </mxCell>
        <mxCell id="1cbDfAs7EbQOvND0lRby-27" value="Update issue status" style="verticalAlign=bottom;endArrow=block;edgeStyle=elbowEdgeStyle;elbow=vertical;curved=0;rounded=0;dashed=1;dashPattern=2 3;" edge="1" parent="1" source="1cbDfAs7EbQOvND0lRby-6" target="1cbDfAs7EbQOvND0lRby-2">
          <mxGeometry relative="1" as="geometry">
            <Array as="points">
              <mxPoint x="808" y="1435" />
            </Array>
          </mxGeometry>
        </mxCell>
        <mxCell id="1cbDfAs7EbQOvND0lRby-28" value="Notify resolution of issues" style="verticalAlign=bottom;endArrow=block;edgeStyle=elbowEdgeStyle;elbow=vertical;curved=0;rounded=0;" edge="1" parent="1" source="1cbDfAs7EbQOvND0lRby-2" target="1cbDfAs7EbQOvND0lRby-1">
          <mxGeometry relative="1" as="geometry">
            <Array as="points">
              <mxPoint x="254" y="1487" />
            </Array>
          </mxGeometry>
        </mxCell>
      </root>
    </mxGraphModel>
  </diagram>
</mxfile>
